<svg width="274" height="44" viewBox="0 0 274 44" fill="none" xmlns="http://www.w3.org/2000/svg">
<path d="M36.5696 40.1329C37.8959 38.7733 38.7625 36.9282 39.0098 34.9368C39.0556 34.5669 39.1831 33.5488 39.3625 32.1228C42.1463 9.94206 42.1463 9.69441 42.1463 9.35207C42.1463 9.26779 42.1448 9.18053 42.1417 9.09327C42.07 6.90353 41.0454 4.82566 39.3313 3.39069C37.5904 1.93336 35.2877 1.25316 33.0125 1.5239L7.0693 4.61832C3.80073 5.00839 1.0628 7.33611 0.255774 10.4111C0.0862762 11.0563 0 11.723 0 12.3928C0 12.4778 0.00152701 12.5651 0.00458104 12.6553C0.10002 15.5037 1.80722 18.0759 4.45964 19.3685C7.44647 20.743 13.4683 22.3317 17.046 25.8266C20.6238 29.3215 22.2409 35.1963 23.6481 38.1133L23.658 38.1319C24.9865 40.7475 27.6359 42.4331 30.5739 42.5301C30.667 42.533 30.7601 42.5346 30.8525 42.5346C33.0278 42.5346 35.0579 41.6814 36.5689 40.1315L36.5696 40.1329Z" fill="url(#paint0_linear_1066_717)"/>
<path opacity="0.4" d="M25.6614 34.599C25.6614 37.3995 27.9946 39.6728 30.8517 39.6728C33.7087 39.6728 36.0504 37.3914 36.0504 34.599C36.0504 31.8066 33.7172 29.5251 30.8517 29.5251C27.987 29.5251 25.6614 31.8066 25.6614 34.599Z" fill="white"/>
<path opacity="0.4" d="M28.7747 9.4005C28.7747 12.2011 31.108 14.4744 33.965 14.4744C36.8221 14.4744 39.1637 12.1929 39.1637 9.4005C39.1637 6.60814 36.8304 4.32666 33.965 4.32666C31.1003 4.32666 28.7747 6.60814 28.7747 9.4005Z" fill="white"/>
<path opacity="0.4" d="M2.9834 12.442C2.9834 15.2426 5.31668 17.5159 8.18211 17.5159C11.0476 17.5159 13.3725 15.2344 13.3725 12.442C13.3725 9.64964 11.0391 7.36816 8.18211 7.36816C5.32508 7.36816 2.9834 9.64964 2.9834 12.442Z" fill="white"/>
<path d="M56.2307 31.2497V12.1671H59.0057V20.3181L66.7757 12.1671H70.2445L61.6697 21.0542L70.3832 31.2497H66.9145L59.2832 22.39L59.0057 22.6626V31.2497H56.2307ZM70.8391 31.2497V17.7284H73.6141V31.2497H70.8391ZM72.2266 15.3021C71.6902 15.3021 71.2462 15.1386 70.8946 14.8114C70.5431 14.4662 70.3674 14.0481 70.3674 13.5574C70.3674 13.0667 70.5431 12.6578 70.8946 12.3307C71.2462 11.9854 71.6902 11.8127 72.2266 11.8127C72.7447 11.8127 73.1794 11.9854 73.5309 12.3307C73.8824 12.6578 74.0581 13.0667 74.0581 13.5574C74.0581 14.0481 73.8824 14.4662 73.5309 14.8114C73.1794 15.1386 72.7447 15.3021 72.2266 15.3021ZM80.7402 31.2497C79.8707 31.2497 79.1123 31.1134 78.4647 30.8408C77.8172 30.5682 77.3177 30.1139 76.9662 29.4778C76.6148 28.8417 76.439 27.9784 76.439 26.888V19.8002H74.0525V17.7284H76.439L76.772 14.348H79.214V17.7284H83.1545V19.8002H79.214V26.9153C79.214 27.7512 79.3712 28.3237 79.6857 28.6327C80.0187 28.9235 80.6015 29.0689 81.434 29.0689H82.9602V31.2497H80.7402ZM89.3165 31.5769C87.9662 31.5769 86.7728 31.2861 85.7368 30.7045C84.7008 30.1048 83.8868 29.2779 83.2948 28.2238C82.7028 27.1697 82.4068 25.9339 82.4068 24.5163C82.4068 23.0987 82.6936 21.8629 83.267 20.8088C83.8591 19.7365 84.673 18.9006 85.709 18.3008C86.7635 17.7011 87.975 17.4012 89.3442 17.4012C90.7135 17.4012 91.8877 17.7011 92.8685 18.3008C93.8492 18.8824 94.6072 19.6548 95.144 20.618C95.699 21.5812 95.9765 22.6535 95.9765 23.8348C95.9765 24.0165 95.967 24.2164 95.9487 24.4345C95.9487 24.6526 95.9392 24.8798 95.921 25.116H84.4325V23.2078H93.2015C93.146 22.0628 92.7575 21.1723 92.036 20.5362C91.3145 19.882 90.4082 19.5548 89.3165 19.5548C88.5577 19.5548 87.8552 19.7184 87.2075 20.0455C86.5786 20.3545 86.0698 20.8361 85.6813 21.4904C85.3113 22.1446 85.1263 22.9716 85.1263 23.9711V24.7344C85.1263 25.7339 85.3205 26.579 85.709 27.2697C86.0975 27.9421 86.6063 28.451 87.2353 28.7963C87.8829 29.1415 88.5672 29.3142 89.2887 29.3142C90.1767 29.3142 90.9077 29.1234 91.481 28.7417C92.0732 28.3419 92.5077 27.8058 92.7852 27.1334H95.5602C95.32 27.9876 94.9125 28.7509 94.3392 29.4233C93.7659 30.0775 93.0532 30.6046 92.2025 31.0044C91.37 31.386 90.4082 31.5769 89.3165 31.5769Z" fill="black"/>
<path d="M100.833 31L107.772 12.1H110.715L117.654 31H114.765L109.23 15.34L103.668 31H100.833ZM103.965 26.329L104.721 24.169H113.604L114.36 26.329H103.965ZM124.127 37.264C122.885 37.264 121.787 37.102 120.833 36.778C119.879 36.472 119.141 35.995 118.619 35.347C118.097 34.699 117.836 33.907 117.836 32.971C117.836 32.485 117.944 31.99 118.16 31.486C118.376 31 118.727 30.532 119.213 30.082C119.699 29.632 120.356 29.227 121.184 28.867L122.696 30.082C121.778 30.424 121.157 30.829 120.833 31.297C120.527 31.783 120.374 32.251 120.374 32.701C120.374 33.241 120.536 33.691 120.86 34.051C121.184 34.411 121.625 34.681 122.183 34.861C122.759 35.041 123.407 35.131 124.127 35.131C124.829 35.131 125.441 35.032 125.963 34.834C126.485 34.636 126.89 34.357 127.178 33.997C127.466 33.637 127.61 33.214 127.61 32.728C127.61 32.152 127.394 31.666 126.962 31.27C126.53 30.892 125.702 30.667 124.478 30.595C123.452 30.523 122.579 30.424 121.859 30.298C121.157 30.172 120.554 30.019 120.05 29.839C119.564 29.659 119.15 29.461 118.808 29.245C118.484 29.029 118.205 28.804 117.971 28.57V27.949L120.671 25.168L122.858 25.924L119.915 28.651L120.482 27.436C120.68 27.562 120.869 27.688 121.049 27.814C121.229 27.922 121.472 28.021 121.778 28.111C122.084 28.201 122.498 28.282 123.02 28.354C123.542 28.426 124.226 28.498 125.072 28.57C126.296 28.66 127.277 28.876 128.015 29.218C128.771 29.56 129.32 30.019 129.662 30.595C130.004 31.171 130.175 31.855 130.175 32.647C130.175 33.421 129.959 34.159 129.527 34.861C129.113 35.563 128.456 36.139 127.556 36.589C126.674 37.039 125.531 37.264 124.127 37.264ZM124.127 26.815C122.975 26.815 121.994 26.599 121.184 26.167C120.392 25.735 119.78 25.15 119.348 24.412C118.934 23.674 118.727 22.855 118.727 21.955C118.727 21.037 118.934 20.218 119.348 19.498C119.78 18.76 120.401 18.175 121.211 17.743C122.021 17.293 122.993 17.068 124.127 17.068C125.261 17.068 126.224 17.293 127.016 17.743C127.826 18.175 128.438 18.76 128.852 19.498C129.284 20.218 129.5 21.037 129.5 21.955C129.5 22.855 129.284 23.674 128.852 24.412C128.438 25.15 127.826 25.735 127.016 26.167C126.224 26.599 125.261 26.815 124.127 26.815ZM124.127 24.655C125.009 24.655 125.711 24.43 126.233 23.98C126.755 23.512 127.016 22.837 127.016 21.955C127.016 21.073 126.755 20.407 126.233 19.957C125.711 19.489 125.009 19.255 124.127 19.255C123.245 19.255 122.534 19.489 121.994 19.957C121.454 20.407 121.184 21.073 121.184 21.955C121.184 22.837 121.454 23.512 121.994 23.98C122.534 24.43 123.245 24.655 124.127 24.655ZM126.341 19.525L125.693 17.392H131.282V19.255L126.341 19.525ZM137.999 31.324C136.703 31.324 135.551 31.027 134.543 30.433C133.535 29.839 132.743 29.011 132.167 27.949C131.609 26.887 131.33 25.654 131.33 24.25C131.33 22.81 131.609 21.559 132.167 20.497C132.743 19.417 133.535 18.58 134.543 17.986C135.551 17.374 136.721 17.068 138.053 17.068C139.385 17.068 140.528 17.365 141.482 17.959C142.436 18.553 143.174 19.345 143.696 20.335C144.218 21.307 144.479 22.387 144.479 23.575C144.479 23.755 144.47 23.953 144.452 24.169C144.452 24.367 144.443 24.592 144.425 24.844H133.301V22.927H141.779C141.725 21.793 141.347 20.911 140.645 20.281C139.943 19.633 139.07 19.309 138.026 19.309C137.288 19.309 136.613 19.48 136.001 19.822C135.389 20.146 134.894 20.632 134.516 21.28C134.156 21.91 133.976 22.711 133.976 23.683V24.439C133.976 25.447 134.156 26.302 134.516 27.004C134.894 27.688 135.389 28.21 136.001 28.57C136.613 28.912 137.279 29.083 137.999 29.083C138.863 29.083 139.574 28.894 140.132 28.516C140.69 28.138 141.104 27.625 141.374 26.977H144.074C143.84 27.805 143.444 28.552 142.886 29.218C142.328 29.866 141.635 30.379 140.807 30.757C139.997 31.135 139.061 31.324 137.999 31.324ZM145.859 31V17.392H148.289L148.451 19.714C148.883 18.904 149.495 18.265 150.287 17.797C151.079 17.311 151.988 17.068 153.014 17.068C154.094 17.068 155.021 17.284 155.795 17.716C156.569 18.148 157.172 18.805 157.604 19.687C158.036 20.551 158.252 21.64 158.252 22.954V31H155.552V23.224C155.552 21.964 155.273 21.01 154.715 20.362C154.157 19.714 153.347 19.39 152.285 19.39C151.583 19.39 150.953 19.561 150.395 19.903C149.837 20.227 149.387 20.713 149.045 21.361C148.721 22.009 148.559 22.801 148.559 23.737V31H145.859ZM165.701 31C164.837 31 164.09 30.865 163.46 30.595C162.83 30.325 162.344 29.875 162.002 29.245C161.66 28.615 161.489 27.76 161.489 26.68V19.687H159.14V17.392H161.489L161.813 13.99H164.189V17.392H168.05V19.687H164.189V26.707C164.189 27.481 164.351 28.012 164.675 28.3C164.999 28.57 165.557 28.705 166.349 28.705H167.915V31H165.701ZM174.831 31V12.1H181.284C182.796 12.1 184.038 12.352 185.01 12.856C185.982 13.36 186.702 14.035 187.17 14.881C187.638 15.727 187.872 16.69 187.872 17.77C187.872 18.796 187.638 19.741 187.17 20.605C186.72 21.451 186.009 22.135 185.037 22.657C184.065 23.161 182.814 23.413 181.284 23.413H177.531V31H174.831ZM177.531 21.172H181.176C182.598 21.172 183.606 20.866 184.2 20.254C184.812 19.624 185.118 18.796 185.118 17.77C185.118 16.672 184.812 15.826 184.2 15.232C183.606 14.638 182.598 14.341 181.176 14.341H177.531V21.172ZM192.825 31.324C191.709 31.324 190.782 31.135 190.044 30.757C189.306 30.379 188.757 29.875 188.397 29.245C188.037 28.597 187.857 27.904 187.857 27.166C187.857 26.266 188.091 25.501 188.559 24.871C189.027 24.223 189.693 23.728 190.557 23.386C191.421 23.044 192.456 22.873 193.662 22.873H197.199C197.199 22.081 197.082 21.424 196.848 20.902C196.614 20.38 196.263 19.993 195.795 19.741C195.345 19.471 194.769 19.336 194.067 19.336C193.257 19.336 192.564 19.534 191.988 19.93C191.412 20.308 191.052 20.875 190.908 21.631H188.208C188.316 20.677 188.64 19.867 189.18 19.201C189.738 18.517 190.449 17.995 191.313 17.635C192.177 17.257 193.095 17.068 194.067 17.068C195.345 17.068 196.416 17.293 197.28 17.743C198.144 18.193 198.792 18.832 199.224 19.66C199.674 20.47 199.899 21.442 199.899 22.576V31H197.55L197.334 28.705C197.136 29.065 196.902 29.407 196.632 29.731C196.362 30.055 196.038 30.334 195.66 30.568C195.3 30.802 194.877 30.982 194.391 31.108C193.923 31.252 193.401 31.324 192.825 31.324ZM193.338 29.137C193.914 29.137 194.436 29.02 194.904 28.786C195.372 28.552 195.768 28.237 196.092 27.841C196.434 27.427 196.686 26.968 196.848 26.464C197.028 25.942 197.127 25.411 197.145 24.871V24.79H193.932C193.158 24.79 192.528 24.889 192.042 25.087C191.574 25.267 191.232 25.519 191.016 25.843C190.8 26.167 190.692 26.545 190.692 26.977C190.692 27.427 190.791 27.814 190.989 28.138C191.205 28.444 191.511 28.687 191.907 28.867C192.303 29.047 192.78 29.137 193.338 29.137ZM206.99 31.324C205.838 31.324 204.83 31.135 203.966 30.757C203.102 30.379 202.418 29.848 201.914 29.164C201.41 28.48 201.104 27.679 200.996 26.761H203.75C203.84 27.193 204.011 27.589 204.263 27.949C204.533 28.309 204.893 28.597 205.343 28.813C205.811 29.029 206.36 29.137 206.99 29.137C207.584 29.137 208.07 29.056 208.448 28.894C208.844 28.714 209.132 28.48 209.312 28.192C209.492 27.886 209.582 27.562 209.582 27.22C209.582 26.716 209.456 26.338 209.204 26.086C208.97 25.816 208.61 25.609 208.124 25.465C207.656 25.303 207.089 25.159 206.423 25.033C205.793 24.925 205.181 24.781 204.587 24.601C204.011 24.403 203.489 24.16 203.021 23.872C202.571 23.584 202.211 23.224 201.941 22.792C201.671 22.342 201.536 21.793 201.536 21.145C201.536 20.371 201.743 19.678 202.157 19.066C202.571 18.436 203.156 17.95 203.912 17.608C204.686 17.248 205.595 17.068 206.639 17.068C208.151 17.068 209.366 17.428 210.284 18.148C211.202 18.868 211.742 19.885 211.904 21.199H209.285C209.213 20.587 208.943 20.119 208.475 19.795C208.007 19.453 207.386 19.282 206.612 19.282C205.838 19.282 205.244 19.435 204.83 19.741C204.416 20.047 204.209 20.452 204.209 20.956C204.209 21.28 204.326 21.568 204.56 21.82C204.794 22.072 205.136 22.288 205.586 22.468C206.054 22.63 206.621 22.783 207.287 22.927C208.241 23.107 209.096 23.332 209.852 23.602C210.608 23.872 211.211 24.268 211.661 24.79C212.111 25.312 212.336 26.059 212.336 27.031C212.354 27.877 212.138 28.624 211.688 29.272C211.256 29.92 210.635 30.424 209.825 30.784C209.033 31.144 208.088 31.324 206.99 31.324ZM219.16 31.324C218.008 31.324 217 31.135 216.136 30.757C215.272 30.379 214.588 29.848 214.084 29.164C213.58 28.48 213.274 27.679 213.166 26.761H215.92C216.01 27.193 216.181 27.589 216.433 27.949C216.703 28.309 217.063 28.597 217.513 28.813C217.981 29.029 218.53 29.137 219.16 29.137C219.754 29.137 220.24 29.056 220.618 28.894C221.014 28.714 221.302 28.48 221.482 28.192C221.662 27.886 221.752 27.562 221.752 27.22C221.752 26.716 221.626 26.338 221.374 26.086C221.14 25.816 220.78 25.609 220.294 25.465C219.826 25.303 219.259 25.159 218.593 25.033C217.963 24.925 217.351 24.781 216.757 24.601C216.181 24.403 215.659 24.16 215.191 23.872C214.741 23.584 214.381 23.224 214.111 22.792C213.841 22.342 213.706 21.793 213.706 21.145C213.706 20.371 213.913 19.678 214.327 19.066C214.741 18.436 215.326 17.95 216.082 17.608C216.856 17.248 217.765 17.068 218.809 17.068C220.321 17.068 221.536 17.428 222.454 18.148C223.372 18.868 223.912 19.885 224.074 21.199H221.455C221.383 20.587 221.113 20.119 220.645 19.795C220.177 19.453 219.556 19.282 218.782 19.282C218.008 19.282 217.414 19.435 217 19.741C216.586 20.047 216.379 20.452 216.379 20.956C216.379 21.28 216.496 21.568 216.73 21.82C216.964 22.072 217.306 22.288 217.756 22.468C218.224 22.63 218.791 22.783 219.457 22.927C220.411 23.107 221.266 23.332 222.022 23.602C222.778 23.872 223.381 24.268 223.831 24.79C224.281 25.312 224.506 26.059 224.506 27.031C224.524 27.877 224.308 28.624 223.858 29.272C223.426 29.92 222.805 30.424 221.995 30.784C221.203 31.144 220.258 31.324 219.16 31.324ZM226.065 36.94V17.392H228.495L228.765 19.498C229.053 19.084 229.413 18.697 229.845 18.337C230.277 17.959 230.79 17.653 231.384 17.419C231.996 17.185 232.707 17.068 233.517 17.068C234.813 17.068 235.947 17.383 236.919 18.013C237.909 18.643 238.674 19.498 239.214 20.578C239.772 21.64 240.051 22.855 240.051 24.223C240.051 25.591 239.772 26.815 239.214 27.895C238.656 28.957 237.882 29.794 236.892 30.406C235.92 31.018 234.786 31.324 233.49 31.324C232.428 31.324 231.492 31.117 230.682 30.703C229.872 30.271 229.233 29.677 228.765 28.921V36.94H226.065ZM233.058 28.975C233.886 28.975 234.615 28.777 235.245 28.381C235.893 27.985 236.397 27.427 236.757 26.707C237.135 25.987 237.324 25.15 237.324 24.196C237.324 23.242 237.135 22.414 236.757 21.712C236.397 20.992 235.893 20.434 235.245 20.038C234.615 19.624 233.886 19.417 233.058 19.417C232.212 19.417 231.465 19.624 230.817 20.038C230.187 20.434 229.692 20.992 229.332 21.712C228.972 22.414 228.792 23.242 228.792 24.196C228.792 25.15 228.972 25.987 229.332 26.707C229.692 27.427 230.187 27.985 230.817 28.381C231.465 28.777 232.212 28.975 233.058 28.975ZM247.794 31.324C246.516 31.324 245.364 31.027 244.338 30.433C243.33 29.839 242.529 29.011 241.935 27.949C241.359 26.869 241.071 25.627 241.071 24.223C241.071 22.783 241.368 21.532 241.962 20.47C242.556 19.39 243.366 18.553 244.392 17.959C245.418 17.365 246.57 17.068 247.848 17.068C249.144 17.068 250.296 17.365 251.304 17.959C252.312 18.553 253.104 19.381 253.68 20.443C254.274 21.505 254.571 22.756 254.571 24.196C254.571 25.636 254.274 26.887 253.68 27.949C253.104 29.011 252.303 29.839 251.277 30.433C250.251 31.027 249.09 31.324 247.794 31.324ZM247.794 29.002C248.532 29.002 249.198 28.822 249.792 28.462C250.404 28.102 250.89 27.571 251.25 26.869C251.628 26.149 251.817 25.258 251.817 24.196C251.817 23.134 251.637 22.252 251.277 21.55C250.917 20.83 250.431 20.29 249.819 19.93C249.225 19.57 248.568 19.39 247.848 19.39C247.128 19.39 246.462 19.57 245.85 19.93C245.238 20.29 244.743 20.83 244.365 21.55C244.005 22.252 243.825 23.134 243.825 24.196C243.825 25.258 244.005 26.149 244.365 26.869C244.743 27.571 245.229 28.102 245.823 28.462C246.435 28.822 247.092 29.002 247.794 29.002ZM256.127 31V17.392H258.557L258.8 19.957C259.106 19.345 259.502 18.832 259.988 18.418C260.474 17.986 261.041 17.653 261.689 17.419C262.355 17.185 263.111 17.068 263.957 17.068V19.93H262.985C262.427 19.93 261.896 20.002 261.392 20.146C260.888 20.272 260.438 20.497 260.042 20.821C259.664 21.145 259.367 21.586 259.151 22.144C258.935 22.702 258.827 23.395 258.827 24.223V31H256.127ZM270.433 31C269.569 31 268.822 30.865 268.192 30.595C267.562 30.325 267.076 29.875 266.734 29.245C266.392 28.615 266.221 27.76 266.221 26.68V19.687H263.872V17.392H266.221L266.545 13.99H268.921V17.392H272.782V19.687H268.921V26.707C268.921 27.481 269.083 28.012 269.407 28.3C269.731 28.57 270.289 28.705 271.081 28.705H272.647V31H270.433Z" fill="black"/>
<defs>
<linearGradient id="paint0_linear_1066_717" x1="8.90921" y1="29.0134" x2="35.2306" y2="-2.44006" gradientUnits="userSpaceOnUse">
<stop stop-color="#9B8564"/>
<stop offset="1" stop-color="#DBD5C7"/>
</linearGradient>
</defs>
</svg>
